<svg xmlns="http://www.w3.org/2000/svg" viewBox="0 0 383.578 39.921"><title>Marginal Revolution Logo NewTagline</title><path d="M63.5,40.4l1.031-1.283a3.222,3.222,0,0,0,2.087.947c.671,0,1.079-.335,1.079-.827V39.22c0-.42-.24-.684-1.439-1.139-1.487-.576-2.411-1.14-2.411-2.579v-.024a2.492,2.492,0,0,1,2.747-2.459,3.99,3.99,0,0,1,2.71,1.032L68.33,35.37a2.936,2.936,0,0,0-1.787-.78c-.6,0-.972.3-.972.732v.012c0,.479.288.708,1.6,1.247,1.463.576,2.254,1.2,2.254,2.507v.024A2.536,2.536,0,0,1,66.6,41.63,4.5,4.5,0,0,1,63.5,40.4Z" transform="translate(-1.368 -1.745)"/><path d="M70.708,33.127h1.823L74.4,36.533l1.847-3.406h1.835v8.395h-1.7v-5.36L74.4,39.627h-.036L72.4,36.186v5.336H70.708Z" transform="translate(-1.368 -1.745)"/><path d="M82.143,33.079H83.8l3.011,8.443h-1.8L84.385,39.7H81.5l-.612,1.823H79.132Zm1.715,5.085-.912-2.734-.923,2.734Z" transform="translate(-1.368 -1.745)"/><path d="M87.856,33.127H89.6v6.8h3.394v1.595H87.856Z" transform="translate(-1.368 -1.745)"/><path d="M94.155,33.127H95.9v6.8h3.394v1.595H94.155Z" transform="translate(-1.368 -1.745)"/><path d="M102.532,40.4l1.031-1.283a3.222,3.222,0,0,0,2.087.947c.671,0,1.08-.335,1.08-.827V39.22c0-.42-.241-.684-1.44-1.139-1.487-.576-2.41-1.14-2.41-2.579v-.024a2.491,2.491,0,0,1,2.746-2.459,3.994,3.994,0,0,1,2.711,1.032l-.972,1.319a2.934,2.934,0,0,0-1.787-.78c-.6,0-.971.3-.971.732v.012c0,.479.288.708,1.595,1.247,1.463.576,2.255,1.2,2.255,2.507v.024a2.537,2.537,0,0,1-2.819,2.518A4.5,4.5,0,0,1,102.532,40.4Z" transform="translate(-1.368 -1.745)"/><path d="M111.17,34.734h-2.111V33.127h5.949v1.607H112.9v6.788H111.17Z" transform="translate(-1.368 -1.745)"/><path d="M116.187,33.127H121.6V34.7h-3.682v1.811h3.238v1.572h-3.238v1.87h3.73v1.571h-5.457Z" transform="translate(-1.368 -1.745)"/><path d="M123.014,33.127h2.8a2.762,2.762,0,0,1,3.07,2.878v.024c0,1.931-1.379,2.9-3.142,2.939h-.983v2.554h-1.74Zm2.711,4.282a1.282,1.282,0,0,0,1.4-1.344v-.011A1.254,1.254,0,0,0,125.7,34.7h-.947v2.711Z" transform="translate(-1.368 -1.745)"/><path d="M129.411,40.4l1.031-1.283a3.222,3.222,0,0,0,2.087.947c.671,0,1.08-.335,1.08-.827V39.22c0-.42-.241-.684-1.44-1.139-1.487-.576-2.411-1.14-2.411-2.579v-.024a2.492,2.492,0,0,1,2.747-2.459,3.99,3.99,0,0,1,2.71,1.032l-.971,1.319a2.936,2.936,0,0,0-1.787-.78c-.6,0-.972.3-.972.732v.012c0,.479.289.708,1.6,1.247,1.463.576,2.255,1.2,2.255,2.507v.024a2.537,2.537,0,0,1-2.819,2.518A4.5,4.5,0,0,1,129.411,40.4Z" transform="translate(-1.368 -1.745)"/><path d="M140.918,34.734h-2.111V33.127h5.948v1.607h-2.11v6.788h-1.727Z" transform="translate(-1.368 -1.745)"/><path d="M145.311,37.409v-.144c0-2.519,1.583-4.282,3.8-4.282s3.789,1.751,3.789,4.258v.144c0,2.507-1.583,4.282-3.8,4.282S145.311,39.916,145.311,37.409Zm5.793-.036v-.084c0-1.655-.84-2.7-2-2.7s-2,1.032-2,2.687v.084c0,1.655.851,2.7,2.015,2.7S151.1,39.028,151.1,37.373Z" transform="translate(-1.368 -1.745)"/><path d="M153.338,33.127h1.835l1.416,5.529,1.535-5.553h1.511l1.547,5.553,1.4-5.529h1.8l-2.4,8.443h-1.595l-1.535-5.337L157.32,41.57h-1.583Z" transform="translate(-1.368 -1.745)"/><path d="M167.066,33.079h1.654l3.011,8.443h-1.8l-.624-1.823h-2.89l-.612,1.823h-1.751Zm1.714,5.085-.911-2.734-.924,2.734Z" transform="translate(-1.368 -1.745)"/><path d="M172.778,33.127h3.155a3.122,3.122,0,0,1,2.279.8,2.655,2.655,0,0,1,.707,1.943v.047A2.532,2.532,0,0,1,177.36,38.4l1.787,3.118h-1.991l-1.547-2.758h-1.091v2.758h-1.74Zm3.023,4.1a1.21,1.21,0,0,0,1.367-1.259v-.012c0-.84-.516-1.26-1.4-1.26h-1.247v2.531Z" transform="translate(-1.368 -1.745)"/><path d="M180.3,33.127h2.711a3.844,3.844,0,0,1,4.006,4.138v.108a3.853,3.853,0,0,1-4.006,4.149H180.3Zm1.74,1.571v5.253H183c1.319,0,2.219-.923,2.219-2.59V37.3c0-1.667-.9-2.6-2.219-2.6Z" transform="translate(-1.368 -1.745)"/><path d="M193.453,33.079h1.655l3.011,8.443h-1.8L195.7,39.7h-2.891l-.611,1.823h-1.751Zm1.715,5.085-.912-2.734-.923,2.734Z" transform="translate(-1.368 -1.745)"/><path d="M201.854,33.127h1.823l1.871,3.406,1.847-3.406h1.835v8.395h-1.7v-5.36l-1.979,3.465h-.036l-1.966-3.441v5.336h-1.692Z" transform="translate(-1.368 -1.745)"/><path d="M210.806,38.26V33.127h1.74v5.145c0,1.187.563,1.775,1.463,1.775s1.463-.575,1.463-1.739V33.127H217.2v5.1c0,2.315-1.271,3.43-3.215,3.43S210.806,40.527,210.806,38.26Z" transform="translate(-1.368 -1.745)"/><path d="M218.474,37.385v-.108c0-2.543,1.584-4.27,3.8-4.27a3.527,3.527,0,0,1,2.7,1.116l-1.044,1.343a2.339,2.339,0,0,0-1.715-.84c-1.127,0-1.955,1.044-1.955,2.675v.036c0,1.667.864,2.686,1.979,2.686a2.363,2.363,0,0,0,1.727-.875l1.044,1.235a3.645,3.645,0,0,1-2.842,1.26C219.962,41.643,218.474,39.951,218.474,37.385Z" transform="translate(-1.368 -1.745)"/><path d="M226.2,33.127h1.739V36.5H230.7v-3.37h1.74v8.395H230.7V38.1h-2.758v3.417H226.2Z" transform="translate(-1.368 -1.745)"/><path d="M236.81,33.127h3.118a3.068,3.068,0,0,1,2.195.732,1.942,1.942,0,0,1,.564,1.427v.036a1.964,1.964,0,0,1-1.14,1.835,2,2,0,0,1,1.5,2v.06c0,1.511-1.211,2.3-3.034,2.3h-3.2Zm4.162,2.471c0-.612-.432-.936-1.176-.936H238.5v1.9h1.211c.768,0,1.26-.312,1.26-.947Zm-.948,2.423H238.5v1.966h1.559c.779,0,1.271-.336,1.271-.983v-.012C241.331,38.392,240.888,38.021,240.024,38.021Z" transform="translate(-1.368 -1.745)"/><path d="M244.31,33.127h5.409V34.7h-3.682v1.811h3.238v1.572h-3.238v1.87h3.73v1.571H244.31Z" transform="translate(-1.368 -1.745)"/><path d="M252.745,34.734h-2.111V33.127h5.949v1.607h-2.111v6.788h-1.727Z" transform="translate(-1.368 -1.745)"/><path d="M259.369,34.734h-2.111V33.127h5.949v1.607H261.1v6.788h-1.727Z" transform="translate(-1.368 -1.745)"/><path d="M264.385,33.127h5.41V34.7h-3.683v1.811h3.239v1.572h-3.239v1.87h3.73v1.571h-5.457Z" transform="translate(-1.368 -1.745)"/><path d="M271.213,33.127h3.154a3.12,3.12,0,0,1,2.279.8,2.656,2.656,0,0,1,.708,1.943v.047A2.533,2.533,0,0,1,275.8,38.4l1.787,3.118h-1.991l-1.547-2.758h-1.092v2.758h-1.739Zm3.022,4.1A1.211,1.211,0,0,0,275.6,35.97v-.012c0-.84-.516-1.26-1.4-1.26h-1.247v2.531Z" transform="translate(-1.368 -1.745)"/><path d="M280.849,33.127h1.835l1.416,5.529,1.535-5.553h1.511l1.547,5.553,1.4-5.529h1.8l-2.4,8.443h-1.6l-1.535-5.337-1.535,5.337h-1.583Z" transform="translate(-1.368 -1.745)"/><path d="M292.334,37.409v-.144c0-2.519,1.583-4.282,3.8-4.282s3.789,1.751,3.789,4.258v.144c0,2.507-1.583,4.282-3.8,4.282S292.334,39.916,292.334,37.409Zm5.793-.036v-.084c0-1.655-.839-2.7-2-2.7s-2,1.032-2,2.687v.084c0,1.655.851,2.7,2.015,2.7S298.127,39.028,298.127,37.373Z" transform="translate(-1.368 -1.745)"/><path d="M301.309,33.127h3.154a3.125,3.125,0,0,1,2.28.8,2.655,2.655,0,0,1,.707,1.943v.047a2.532,2.532,0,0,1-1.559,2.483l1.787,3.118h-1.991l-1.547-2.758h-1.092v2.758h-1.739Zm3.023,4.1A1.21,1.21,0,0,0,305.7,35.97v-.012c0-.84-.516-1.26-1.4-1.26h-1.248v2.531Z" transform="translate(-1.368 -1.745)"/><path d="M308.833,33.127h1.739v6.8h3.394v1.595h-5.133Z" transform="translate(-1.368 -1.745)"/><path d="M315.132,33.127h2.711a3.844,3.844,0,0,1,4.006,4.138v.108a3.853,3.853,0,0,1-4.006,4.149h-2.711Zm1.74,1.571v5.253h.96c1.319,0,2.218-.923,2.218-2.59V37.3c0-1.667-.9-2.6-2.218-2.6Z" transform="translate(-1.368 -1.745)"/><path d="M322.67,39.675h1.858v1.847H322.67Z" transform="translate(-1.368 -1.745)"/><path d="M175.414,2.117h9.922a8.646,8.646,0,0,1,6.325,2.2,6.809,6.809,0,0,1,1.861,4.961v.061a6.742,6.742,0,0,1-4.651,6.729l5.3,7.751h-5.581l-4.65-6.945h-3.752v6.945h-4.775Zm9.612,10.542c2.325,0,3.659-1.24,3.659-3.07V9.528c0-2.047-1.427-3.1-3.752-3.1h-4.744v6.232Z" transform="translate(-1.368 -1.745)"/><path d="M197.827,2.117H214.2V6.365H202.571v4.4H212.8v4.248H202.571v4.558h11.782v4.247H197.827Z" transform="translate(-1.368 -1.745)"/><path d="M216.736,2.117h5.271L227.681,17.4l5.675-15.286H238.5l-8.775,21.859h-4.217Z" transform="translate(-1.368 -1.745)"/><path d="M239.491,13.031v-.062a11.539,11.539,0,0,1,23.068-.062v.062a11.539,11.539,0,0,1-23.068.062Zm18.076,0v-.062a6.594,6.594,0,0,0-6.573-6.821,6.491,6.491,0,0,0-6.511,6.759v.062a6.594,6.594,0,0,0,6.573,6.822A6.491,6.491,0,0,0,257.567,13.031Z" transform="translate(-1.368 -1.745)"/><path d="M266.8,2.117h4.775V19.48H282.4v4.341H266.8Z" transform="translate(-1.368 -1.745)"/><path d="M285.029,14.52V2.117H289.8V14.4c0,3.534,1.767,5.363,4.682,5.363s4.682-1.767,4.682-5.209V2.117h4.775V14.365c0,6.573-3.69,9.8-9.519,9.8S285.029,20.907,285.029,14.52Z" transform="translate(-1.368 -1.745)"/><path d="M313.86,6.52h-6.6v-4.4h17.983v4.4h-6.6v17.3H313.86Z" transform="translate(-1.368 -1.745)"/><path d="M329.111,2.117h4.775v21.7h-4.775Z" transform="translate(-1.368 -1.745)"/><path d="M338.349,13.031v-.062a11.54,11.54,0,0,1,23.069-.062v.062a11.54,11.54,0,0,1-23.069.062Zm18.076,0v-.062a6.594,6.594,0,0,0-6.573-6.821,6.492,6.492,0,0,0-6.512,6.759v.062a6.6,6.6,0,0,0,6.575,6.822A6.491,6.491,0,0,0,356.425,13.031Z" transform="translate(-1.368 -1.745)"/><path d="M365.66,2.117h4.4l10.17,13.364V2.117h4.713v21.7h-4.063l-10.51-13.8v13.8H365.66Z" transform="translate(-1.368 -1.745)"/><path d="M1.368,2.117H2.887L11.6,14.954,20.313,2.117h1.519v21.7H20.219V4.97l-8.588,12.5h-.124L2.918,4.97V23.821H1.368Z" transform="translate(-1.368 -1.745)"/><path d="M36.523,1.962h1.55L48.181,23.821H46.414l-2.76-6.077H30.849l-2.76,6.077H26.415Zm6.449,14.325L37.267,3.73,31.531,16.287Z" transform="translate(-1.368 -1.745)"/><path d="M52.765,2.117h9.116a8.555,8.555,0,0,1,6.108,2.139,5.726,5.726,0,0,1,1.643,4.032v.061c0,3.628-2.7,5.705-6.356,6.2l7.163,9.271H68.392L61.478,14.83h-7.1v8.991H52.765ZM61.7,13.373c3.627,0,6.325-1.83,6.325-4.961V8.349c0-2.914-2.294-4.744-6.232-4.744h-7.41v9.768Z" transform="translate(-1.368 -1.745)"/><path d="M74.217,13.031v-.062c0-5.86,4.247-11.224,10.727-11.224A11.373,11.373,0,0,1,92.882,4.6L91.828,5.807a9.776,9.776,0,0,0-6.976-2.6c-5.271,0-8.961,4.465-8.961,9.7v.062c0,5.613,3.5,9.8,9.3,9.8a11.148,11.148,0,0,0,6.915-2.48V14.054H84.852V12.566h8.8v8.372a13.052,13.052,0,0,1-8.526,3.255C78.278,24.193,74.217,19.139,74.217,13.031Z" transform="translate(-1.368 -1.745)"/><path d="M99.7,2.117h1.613v21.7H99.7Z" transform="translate(-1.368 -1.745)"/><path d="M107.975,2.117h1.519L124.47,21V2.117h1.551v21.7h-1.209L109.526,4.536V23.821h-1.551Z" transform="translate(-1.368 -1.745)"/><path d="M140.713,1.962h1.55l10.108,21.859H150.6l-2.76-6.077H135.038l-2.759,6.077H130.6Zm6.449,14.325L141.457,3.73l-5.736,12.557Z" transform="translate(-1.368 -1.745)"/><path d="M156.955,2.117h1.612V22.333h12.744v1.488H156.955Z" transform="translate(-1.368 -1.745)"/></svg>